<?xml version="1.0" encoding="UTF-8"?> <!-- Generator: Adobe Illustrator 22.0.1, SVG Export Plug-In . SVG Version: 6.00 Build 0) --> <svg xmlns="http://www.w3.org/2000/svg" xmlns:xlink="http://www.w3.org/1999/xlink" baseProfile="tiny" id="Layer_1" x="0px" y="0px" viewBox="0 0 1024 1024" xml:space="preserve"> <g> <path fill="#2C8ACA" d="M512,599.66L512,599.66c-59.74,0-108.17-48.43-108.17-108.17v0c0-59.74,48.43-108.17,108.17-108.17h0 c59.74,0,108.17,48.43,108.17,108.17v0C620.17,551.23,571.74,599.66,512,599.66z"></path> <path fill="#2C8ACA" d="M512,911.05L512,911.05c-59.74,0-108.17-48.43-108.17-108.17v0c0-59.74,48.43-108.17,108.17-108.17h0 c59.74,0,108.17,48.43,108.17,108.17v0C620.17,862.62,571.74,911.05,512,911.05z"></path> <path fill="#393090" d="M866.79,436.09c41.67,6.49,80.93-21.39,88.54-62.87l17.03-92.87l0,0c-0.04-85.34-203.37-167.32-457.5-167.4 c-254.22,0-463.22,82.07-463.22,167.4l0,0l17.03,92.87c7.61,41.48,46.87,69.36,88.54,62.87l87.83-13.69 c31.47-4.9,56.77-28.48,63.88-59.52l5.06-22.08c8.11-35.37,39.58-60.45,75.87-60.45h52.75h133.08h58.46 c36.29,0,67.76,25.08,75.87,60.45l5.06,22.08c7.11,31.04,32.42,54.62,63.88,59.52L866.79,436.09z"></path> </g> </svg> 